<?xml version="1.0" encoding="UTF-8" standalone="no"?>
<svg
   viewBox="0 0 64 64"
   height="64"
   width="64"
   fill="#ffffff"
   version="1.1"
   xmlns="http://www.w3.org/2000/svg"
   xmlns:svg="http://www.w3.org/2000/svg">
  <path
     d="M 3.2,11.428571 C 3.2,9.1567143 5.0424286,7.3142855 7.3142857,7.3142855 H 56.685714 c 2.275715,0 4.114286,1.8424288 4.114286,4.1142855 0,2.275715 -1.838571,4.114286 -4.114286,4.114286 H 7.3142857 C 5.0424286,15.542857 3.2,13.704286 3.2,11.428571 Z m 0,20.571428 c 0,-2.275714 1.8424286,-4.114285 4.1142857,-4.114285 H 56.685714 c 2.275715,0 4.114286,1.838571 4.114286,4.114285 0,2.275715 -1.838571,4.114286 -4.114286,4.114286 H 7.3142857 C 5.0424286,36.114285 3.2,34.275714 3.2,31.999999 Z M 56.685714,56.685714 H 7.3142857 C 5.0424286,56.685714 3.2,54.847143 3.2,52.571428 3.2,50.295714 5.0424286,48.457143 7.3142857,48.457143 H 56.685714 c 2.275715,0 4.114286,1.838571 4.114286,4.114285 0,2.275715 -1.838571,4.114286 -4.114286,4.114286 z"
     id="path18075" />
</svg>
